<svg id="Layer_1" data-name="Layer 1" xmlns="http://www.w3.org/2000/svg" viewBox="0 0 63.7 68.09"><title>diagonal-right-arrow</title><path d="M61.32,16.13H48.47c-.6,0-1.21,0-1.81,0a3.65,3.65,0,0,1-3.46-3.74A3.46,3.46,0,0,1,46.73,9c3.7-.08,7.4,0,11.11,0s7.56,0,11.33,0c2.63,0,3.88,1.44,3.87,4.21q0,11-.08,22.09a17.89,17.89,0,0,1,0,1.94c-.25,2.23-1.73,3.65-3.62,3.51s-3-1.62-3-3.85c-.05-4.13,0-8.26,0-12.38V21.39c-.94.88-1.51,1.35-2,1.89L16.16,74.79a15,15,0,0,1-1.29,1.36A3.11,3.11,0,0,1,10.34,76a3.58,3.58,0,0,1-.14-4.81c1.41-1.69,3-3.25,4.45-4.85L59.71,18.09C60.12,17.65,60.48,17.16,61.32,16.13Z" transform="translate(-9.34 -8.96)"/></svg>