<svg id="Layer_1" data-name="Layer 1" xmlns="http://www.w3.org/2000/svg" viewBox="0 0 65.22 59.43"><title>external-link</title><path d="M35.39,72.68c-6.31,0-12.63,0-18.94,0-5.21,0-8.35-3.43-8.35-9.08q0-20.58,0-41.16c0-5.68,3.12-9.13,8.3-9.14,9,0,17.91,0,26.87,0H44a2.27,2.27,0,0,1,2.33,2.31A2.21,2.21,0,0,1,44.06,18c-3,.07-6,0-9,0-6.21,0-12.43,0-18.65,0-2.79,0-4,1.36-4,4.42V63.56c0,3,1.2,4.36,4,4.37h38c2.48,0,3.75-1.42,3.75-4.19q0-9.45,0-18.9c0-.54,0-1.08,0-1.6a2.05,2.05,0,0,1,2-2.08A1.94,1.94,0,0,1,62.41,43a15.24,15.24,0,0,1,.14,2.71c0,6,0,12,0,17.94,0,5.73-3.23,9.08-8.51,9.05-6.21,0-12.43,0-18.65,0Z" transform="translate(-8.09 -13.26)"/><path d="M65.72,18H57.4a11.35,11.35,0,0,1-1.17,0A2.38,2.38,0,0,1,54,15.5a2.25,2.25,0,0,1,2.28-2.21c2.4,0,4.8,0,7.19,0s4.9,0,7.34,0c1.7,0,2.52,1,2.51,2.78q0,7.27,0,14.56c0,.43,0,.86,0,1.28-.16,1.47-1.12,2.41-2.34,2.31s-1.94-1.06-2-2.53c0-2.72,0-5.45,0-8.17V21.45c-.61.58-1,.9-1.3,1.25l-31.14,34a10.17,10.17,0,0,1-.83.9,2,2,0,0,1-2.94-.11,2.39,2.39,0,0,1-.09-3.17c.91-1.12,1.91-2.14,2.88-3.2l29.18-31.8C64.94,19,65.18,18.66,65.72,18Z" transform="translate(-8.09 -13.26)"/></svg>