<svg id="Layer_1" data-name="Layer 1" xmlns="http://www.w3.org/2000/svg" viewBox="0 0 53.39 69.61"><defs><style>.cls-1{fill:#9d9d9d;}</style></defs><title>grayCurveArrow</title><path class="cls-1" d="M3.27,85.4A65.7,65.7,0,0,0,29.93,68.69C37.84,60.39,42.58,50.08,45.24,39c1.6-6.65,2.55-13.44,3.49-20.22a1.55,1.55,0,0,0-1-1.84A1.51,1.51,0,0,0,45.84,18c-1.58,11.41-3.16,23.16-8,33.73A56.25,56.25,0,0,1,18,74.86,64.9,64.9,0,0,1,2.48,82.51c-1.82.61-1,3.51.79,2.89Z" transform="translate(-1.44 -15.87)"/><path class="cls-1" d="M37.83,33a53.23,53.23,0,0,0,9.73-14.84l-2.74-.36c2,5.31,3.53,11.22,7.48,15.47,1.32,1.41,3.43-.71,2.12-2.13a20.57,20.57,0,0,1-3.79-6.31c-1.06-2.57-2-5.22-2.92-7.83-.39-1.06-2.17-1.65-2.74-.35A50.74,50.74,0,0,1,35.7,30.85c-1.3,1.42.81,3.55,2.13,2.12Z" transform="translate(-1.44 -15.87)"/></svg>